<svg id="Ebene_1" data-name="Ebene 1" xmlns="http://www.w3.org/2000/svg" viewBox="0 0 566.93 207"><defs><style>.cls-1{fill:#00403e;}</style></defs><title>005 Logo</title><path class="cls-1" d="M119.79,152.37a19.25,19.25,0,0,0,9.92-2.83l2.61,6.37a23.32,23.32,0,0,1-12.6,3.62q-8.26,0-12.2-4.67t-3.95-12.64a19,19,0,0,1,3.95-12.35q3.95-4.89,11.26-4.89,7,0,10.46,4.16a15.35,15.35,0,0,1,3.44,10.1,22.54,22.54,0,0,1-.58,5.65h-20a8,8,0,0,0,2.06,5.5A7.52,7.52,0,0,0,119.79,152.37Zm-7.6-13.54h12.6a6.27,6.27,0,0,0,.07-1,5.79,5.79,0,0,0-1.74-4.49,6.19,6.19,0,0,0-4.34-1.59Q112.69,131.73,112.19,138.82Z"/><path class="cls-1" d="M161.43,128.47V115.36H155.2v-7h14.27v43.45h4.78v7H168.6a5.91,5.91,0,0,1-4.24-1.41,5.46,5.46,0,0,1-1.7-3.51,12.18,12.18,0,0,1-10.57,5.72q-6.52,0-10-4.53t-3.51-12.85q0-8.18,3.55-12.67T152.38,125Q158.39,125,161.43,128.47Zm-14.56,13.69q0,9.78,7.68,9.78a8.54,8.54,0,0,0,6.88-2.9V135a9.52,9.52,0,0,0-6.81-2.39Q146.87,132.59,146.88,142.16Z"/><path class="cls-1" d="M211.62,125.71v26h4.93v7h-11.3v-5.79q-3.91,6.52-12.24,6.52-10.72,0-10.72-13V132.67h-4.78v-7h12.82v19.84a7.12,7.12,0,0,0,1.34,4.74q1.34,1.56,4.74,1.56a8.76,8.76,0,0,0,4.24-1.12,7.2,7.2,0,0,0,3-2.86V132.67h-6.09v-7Z"/><path class="cls-1" d="M253.77,112.46v12.75h-7.24l-1.3-8.26a22.42,22.42,0,0,0-6.37-.94,7.14,7.14,0,0,0-5.29,1.88,6.3,6.3,0,0,0-1.88,4.64q0,4.38,4.94,6.18l7.09,2.54q6.44,2.32,9.08,5.7a13.54,13.54,0,0,1,2.64,8.6,13.29,13.29,0,0,1-4.31,9.74q-4.31,4.24-12.49,4.24a36.28,36.28,0,0,1-16.15-3.4L221.9,143h7.24l1.88,8.47a17.86,17.86,0,0,0,7.53,1.3,8.32,8.32,0,0,0,5.61-1.77,5.86,5.86,0,0,0,2.06-4.67q0-4.64-4.78-6.37l-7.68-2.75q-6.16-2.24-8.69-5.58a14,14,0,0,1-2.53-8.69,13.56,13.56,0,0,1,4.05-9.71q4.06-4.2,12.24-4.2A32.9,32.9,0,0,1,253.77,112.46Z"/><path class="cls-1" d="M277.59,152.37a19.25,19.25,0,0,0,9.92-2.83l2.61,6.37a23.31,23.31,0,0,1-12.6,3.62q-8.26,0-12.2-4.67t-3.95-12.64a19,19,0,0,1,3.95-12.35q3.95-4.89,11.26-4.89,7,0,10.47,4.16a15.35,15.35,0,0,1,3.44,10.1,22.63,22.63,0,0,1-.58,5.65h-20a8,8,0,0,0,2.07,5.5A7.52,7.52,0,0,0,277.59,152.37ZM270,138.82h12.6a6.38,6.38,0,0,0,.07-1,5.79,5.79,0,0,0-1.74-4.49,6.19,6.19,0,0,0-4.35-1.59Q270.5,131.73,270,138.82Z"/><path class="cls-1" d="M296.5,158.74v-7h4.27v-19h-4.13v-7h11.3v3.91q3.84-4.64,11.15-4.64,11.15,0,11.15,13v13.76h4.2v7h-17v-7h4.78V138.9a7,7,0,0,0-1.38-4.74q-1.38-1.56-4.85-1.56a11.23,11.23,0,0,0-7.17,2.46v16.73h4.64v7Z"/><path class="cls-1" d="M364.64,127.09V136h-6.37l-.94-4.42a12.4,12.4,0,0,0-4.56-.8,4.4,4.4,0,0,0-3.12,1,3.25,3.25,0,0,0-1.09,2.46q0,2.58,3,3.62l5.22,1.57a15.49,15.49,0,0,1,6.86,3.82,8.64,8.64,0,0,1,2.21,6.12,9.28,9.28,0,0,1-3.29,7.21q-3.3,2.93-10.39,2.93a32.74,32.74,0,0,1-12.46-2.24l-.58-9.41h6.37L347,152.8a11.46,11.46,0,0,0,5.14,1,5.64,5.64,0,0,0,3.4-.9,3,3,0,0,0,1.23-2.57q0-2.46-3.18-3.55l-5.47-1.7q-8.51-2.61-8.51-9.88A9.7,9.7,0,0,1,342.7,128q3.11-3,10.07-3A29.88,29.88,0,0,1,364.64,127.09Z"/><path class="cls-1" d="M387.89,152.37a19.25,19.25,0,0,0,9.92-2.83l2.61,6.37a23.31,23.31,0,0,1-12.6,3.62q-8.26,0-12.2-4.67t-3.95-12.64a19,19,0,0,1,3.95-12.35q3.95-4.89,11.26-4.89,7,0,10.47,4.16a15.35,15.35,0,0,1,3.44,10.1,22.63,22.63,0,0,1-.58,5.65h-20a8,8,0,0,0,2.07,5.5A7.52,7.52,0,0,0,387.89,152.37Zm-7.61-13.54h12.6a6.38,6.38,0,0,0,.07-1,5.79,5.79,0,0,0-1.74-4.49,6.19,6.19,0,0,0-4.35-1.59Q380.79,131.73,380.29,138.82Z"/><rect class="cls-1" x="498.32" y="110.07" width="6.72" height="28.86" transform="translate(931.7 -162.31) rotate(132.36)"/><polygon class="cls-1" points="469.37 95.07 498.15 142.3 501.66 124.52 519.05 119.38 469.37 95.07"/><path class="cls-1" d="M469,123.24h-4.15v-6.78l1.07-.59a22.08,22.08,0,1,0-21.42,0l1.07.59v6.78h-4.15v-4.37a26.23,26.23,0,1,1,27.58,0Z"/><rect class="cls-1" x="405.23" y="92.8" width="16.77" height="4.15"/><rect class="cls-1" x="488.49" y="92.8" width="16.77" height="4.15"/><rect class="cls-1" x="453.17" y="44.86" width="4.15" height="16.77"/><rect class="cls-1" x="476.3" y="63.36" width="16.77" height="4.15" transform="translate(95.69 361.89) rotate(-45)"/><rect class="cls-1" x="423.73" y="57.05" width="4.15" height="16.77" transform="translate(78.45 320.26) rotate(-45)"/><path class="cls-1" d="M470.93,149.87H439.56V121.16h31.37Zm-27.22-4.15h23.07V125.31H443.71Z"/><path class="cls-1" d="M464.13,162.14H446.37V145.72h17.76ZM450.52,158H460v-8.13h-9.46Z"/><rect class="cls-1" x="441.5" y="131.1" width="27.49" height="1.38" transform="translate(-13.88 64.41) rotate(-7.97)"/><rect class="cls-1" x="441.5" y="138.54" width="27.49" height="1.38" transform="translate(-14.91 64.48) rotate(-7.97)"/><polygon class="cls-1" points="450.21 123.45 442.99 101.62 448.77 101.62 448.77 103 444.9 103 451.52 123.02 450.21 123.45"/><polygon class="cls-1" points="460.29 123.45 458.97 123.02 465.59 103 461.73 103 461.73 101.62 467.5 101.62 460.29 123.45"/><rect class="cls-1" x="450.98" y="100.5" width="0.69" height="3.63"/><rect class="cls-1" x="452.94" y="100.5" width="0.69" height="3.63"/><rect class="cls-1" x="454.9" y="100.5" width="0.69" height="3.63"/><rect class="cls-1" x="456.86" y="100.5" width="0.69" height="3.63"/><rect class="cls-1" x="458.82" y="100.5" width="0.69" height="3.63"/></svg>